# xmcd
#
# Track frame offsets: 
#        150
#        16580
#        28302
#        42155
#        60362
#        75160
#        89601
#        103599
#        123573
#        135177
#        148880
#        162252
#
# Disc length: 2358 seconds
#
# Revision: 0
# Processed by: cddbd v1.5.1PL2 Copyright (c) Steve Scherf et al.
# Submitted via: ExactAudioCopy v0.95b3
#
DISCID=9009340c
DTITLE=Beau Roland Band - Northern Hospitality
DYEAR=2006
DGENRE=Country
TTITLE0=All the Alone Time
TTITLE1=Wake Up
TTITLE2=Why I Oughta
TTITLE3=Anastasia
TTITLE4=Chicago Time
TTITLE5=If I Ever Come Back to St. Louis
TTITLE6=Where Delilah Lay
TTITLE7=229 Years
TTITLE8=Just One
TTITLE9=I'd Bet Someone Let You Down
TTITLE10=My Baby Won't Dance with Me
TTITLE11=Your Arms Are Gonna Carry Me Home
EXTD=
EXTT0=
EXTT1=
EXTT2=
EXTT3=
EXTT4=
EXTT5=
EXTT6=
EXTT7=
EXTT8=
EXTT9=
EXTT10=
EXTT11=
PLAYORDER=
